<mxfile host="Electron" modified="2024-03-21T01:59:26.279Z" agent="Mozilla/5.0 (Windows NT 10.0; Win64; x64) AppleWebKit/537.36 (KHTML, like Gecko) draw.io/23.1.5 Chrome/120.0.6099.109 Electron/28.1.0 Safari/537.36" etag="WUsKtvL9DyG5iYoSANbV" version="23.1.5" type="device">
  <diagram name="PÃ¡gina-1" id="GFRH_6eVJ8DCjbCuaWm4">
    <mxGraphModel dx="1404" dy="814" grid="1" gridSize="10" guides="1" tooltips="1" connect="1" arrows="1" fold="1" page="1" pageScale="1" pageWidth="827" pageHeight="1169" background="#FFFFFF" math="0" shadow="0">
      <root>
        <mxCell id="0" />
        <mxCell id="1" parent="0" />
        <mxCell id="f6aZoT-HNPjUASfwBDb9-1" value="&lt;div style=&quot;text-align: justify;&quot;&gt;&lt;b style=&quot;background-color: initial; font-size: 16px;&quot;&gt;&lt;font color=&quot;#000000&quot;&gt;1 Hacer un programa para ingresar por teclado la cantidad de horas trabajadas&lt;/font&gt;&lt;/b&gt;&lt;/div&gt;&lt;div style=&quot;text-align: justify;&quot;&gt;&lt;font color=&quot;#000000&quot;&gt;&lt;span style=&quot;font-size: 16px;&quot;&gt;&lt;b&gt;&lt;br&gt;&lt;/b&gt;&lt;/span&gt;&lt;/font&gt;&lt;/div&gt;&lt;font style=&quot;font-size: 16px; font-weight: bold;&quot; color=&quot;#000000&quot;&gt;por un operario y el valor que se le paga por hora trabajada y listar por pantalla&lt;br&gt;&lt;br&gt;&lt;div style=&quot;text-align: justify;&quot;&gt;&lt;span style=&quot;background-color: initial;&quot;&gt;el sueldo que le corresponda.&lt;/span&gt;&lt;/div&gt;&lt;/font&gt;" style="text;whiteSpace=wrap;html=1;align=center;" vertex="1" parent="1">
          <mxGeometry x="47" y="30" width="780" height="150" as="geometry" />
        </mxCell>
        <mxCell id="f6aZoT-HNPjUASfwBDb9-6" value="" style="strokeWidth=2;html=1;shape=mxgraph.flowchart.start_2;whiteSpace=wrap;rounded=0;labelBackgroundColor=none;strokeColor=#000000;align=center;verticalAlign=middle;fontFamily=Helvetica;fontSize=12;fontColor=default;fillColor=#d5e8d4;" vertex="1" parent="1">
          <mxGeometry x="370" y="200" width="50" height="40" as="geometry" />
        </mxCell>
        <mxCell id="f6aZoT-HNPjUASfwBDb9-7" value="" style="shape=trapezoid;perimeter=trapezoidPerimeter;whiteSpace=wrap;html=1;fixedSize=1;rounded=0;labelBackgroundColor=none;strokeColor=#121211;strokeWidth=2;align=center;verticalAlign=middle;fontFamily=Helvetica;fontSize=12;fontColor=default;fillColor=#d5e8d4;direction=west;container=1;" vertex="1" parent="1">
          <mxGeometry x="315" y="470" width="160" height="50" as="geometry">
            <mxRectangle x="-1020" y="-650" width="50" height="40" as="alternateBounds" />
          </mxGeometry>
        </mxCell>
        <mxCell id="f6aZoT-HNPjUASfwBDb9-15" value="&lt;b&gt;&lt;font color=&quot;#000000&quot; style=&quot;font-size: 17px;&quot;&gt;sueldo&lt;/font&gt;&lt;/b&gt;" style="text;strokeColor=none;align=center;fillColor=none;html=1;verticalAlign=middle;whiteSpace=wrap;rounded=0;" vertex="1" parent="f6aZoT-HNPjUASfwBDb9-7">
          <mxGeometry x="35" y="10" width="90" height="30" as="geometry" />
        </mxCell>
        <mxCell id="f6aZoT-HNPjUASfwBDb9-16" style="edgeStyle=orthogonalEdgeStyle;rounded=0;sketch=1;hachureGap=4;jiggle=2;curveFitting=1;orthogonalLoop=1;jettySize=auto;html=1;exitX=0.5;exitY=1;exitDx=0;exitDy=0;" edge="1" parent="f6aZoT-HNPjUASfwBDb9-7" source="f6aZoT-HNPjUASfwBDb9-15" target="f6aZoT-HNPjUASfwBDb9-15">
          <mxGeometry relative="1" as="geometry" />
        </mxCell>
        <mxCell id="f6aZoT-HNPjUASfwBDb9-21" value="" style="edgeStyle=orthogonalEdgeStyle;rounded=0;sketch=1;hachureGap=4;jiggle=2;curveFitting=1;orthogonalLoop=1;jettySize=auto;html=1;" edge="1" parent="1" source="f6aZoT-HNPjUASfwBDb9-8" target="f6aZoT-HNPjUASfwBDb9-19">
          <mxGeometry relative="1" as="geometry" />
        </mxCell>
        <mxCell id="f6aZoT-HNPjUASfwBDb9-8" value="" style="rounded=0;whiteSpace=wrap;html=1;labelBackgroundColor=none;strokeColor=#0f100e;strokeWidth=2;align=center;verticalAlign=middle;fontFamily=Helvetica;fontSize=12;fontColor=default;fillColor=#d5e8d4;" vertex="1" parent="1">
          <mxGeometry x="220" y="350" width="360" height="90" as="geometry" />
        </mxCell>
        <mxCell id="f6aZoT-HNPjUASfwBDb9-10" value="&lt;b&gt;&lt;font style=&quot;font-size: 16px;&quot; color=&quot;#000000&quot;&gt;I&lt;/font&gt;&lt;/b&gt;" style="text;strokeColor=none;align=center;fillColor=none;html=1;verticalAlign=middle;whiteSpace=wrap;rounded=0;" vertex="1" parent="1">
          <mxGeometry x="350" y="195" width="90" height="50" as="geometry" />
        </mxCell>
        <mxCell id="f6aZoT-HNPjUASfwBDb9-13" value="" style="group" vertex="1" connectable="0" parent="1">
          <mxGeometry x="220" y="270" width="330" height="50" as="geometry" />
        </mxCell>
        <mxCell id="f6aZoT-HNPjUASfwBDb9-4" value="" style="shape=trapezoid;perimeter=trapezoidPerimeter;whiteSpace=wrap;html=1;fixedSize=1;rounded=0;labelBackgroundColor=none;strokeColor=#0F140C;strokeWidth=2;align=center;verticalAlign=middle;fontFamily=Helvetica;fontSize=12;fontColor=default;fillColor=#d5e8d4;aspect=fixed;" vertex="1" parent="f6aZoT-HNPjUASfwBDb9-13">
          <mxGeometry x="30" width="300" height="50" as="geometry" />
        </mxCell>
        <mxCell id="f6aZoT-HNPjUASfwBDb9-9" value="&lt;b&gt;&lt;font style=&quot;font-size: 15px;&quot; color=&quot;#000000&quot;&gt;horas_trabajo,&lt;/font&gt;&lt;/b&gt;" style="text;strokeColor=none;align=center;fillColor=none;html=1;verticalAlign=middle;whiteSpace=wrap;rounded=0;aspect=fixed;" vertex="1" parent="f6aZoT-HNPjUASfwBDb9-13">
          <mxGeometry width="240" height="50" as="geometry" />
        </mxCell>
        <mxCell id="f6aZoT-HNPjUASfwBDb9-11" value="&lt;span style=&quot;font-size: 16px;&quot;&gt;&lt;b&gt;&lt;font color=&quot;#000000&quot;&gt;valor_trabajo&lt;/font&gt;&lt;/b&gt;&lt;/span&gt;" style="text;strokeColor=none;align=center;fillColor=none;html=1;verticalAlign=middle;whiteSpace=wrap;rounded=0;aspect=fixed;" vertex="1" parent="f6aZoT-HNPjUASfwBDb9-13">
          <mxGeometry x="140" width="180" height="50" as="geometry" />
        </mxCell>
        <mxCell id="f6aZoT-HNPjUASfwBDb9-12" style="edgeStyle=orthogonalEdgeStyle;rounded=0;sketch=1;hachureGap=4;jiggle=2;curveFitting=1;orthogonalLoop=1;jettySize=auto;html=1;entryX=1;entryY=0.5;entryDx=0;entryDy=0;" edge="1" parent="f6aZoT-HNPjUASfwBDb9-13" source="f6aZoT-HNPjUASfwBDb9-11" target="f6aZoT-HNPjUASfwBDb9-11">
          <mxGeometry relative="1" as="geometry" />
        </mxCell>
        <mxCell id="f6aZoT-HNPjUASfwBDb9-14" value="&lt;b&gt;&lt;font color=&quot;#000000&quot; style=&quot;font-size: 15px;&quot;&gt;sueldo = valor_trabajo * horas_trabajo&lt;/font&gt;&lt;/b&gt;" style="text;strokeColor=none;align=center;fillColor=none;html=1;verticalAlign=middle;whiteSpace=wrap;rounded=0;" vertex="1" parent="1">
          <mxGeometry x="230" y="380" width="350" height="30" as="geometry" />
        </mxCell>
        <mxCell id="f6aZoT-HNPjUASfwBDb9-19" value="" style="line;strokeWidth=2;direction=south;html=1;hachureGap=4;aspect=fixed;strokeColor=#000000;shadow=0;" vertex="1" parent="1">
          <mxGeometry x="393.9" y="240" width="1.88" height="30" as="geometry" />
        </mxCell>
        <mxCell id="f6aZoT-HNPjUASfwBDb9-20" value="" style="line;strokeWidth=2;direction=south;html=1;hachureGap=4;aspect=fixed;strokeColor=#000000;shadow=0;" vertex="1" parent="1">
          <mxGeometry x="395.78" y="320" width="1.88" height="30" as="geometry" />
        </mxCell>
        <mxCell id="f6aZoT-HNPjUASfwBDb9-22" value="" style="line;strokeWidth=2;direction=south;html=1;hachureGap=4;aspect=fixed;strokeColor=#000000;shadow=0;" vertex="1" parent="1">
          <mxGeometry x="393.9" y="440" width="1.88" height="30" as="geometry" />
        </mxCell>
        <mxCell id="f6aZoT-HNPjUASfwBDb9-23" value="" style="group" vertex="1" connectable="0" parent="1">
          <mxGeometry x="365" y="540" width="60" height="50" as="geometry" />
        </mxCell>
        <mxCell id="f6aZoT-HNPjUASfwBDb9-5" value="" style="strokeWidth=2;html=1;shape=mxgraph.flowchart.start_2;whiteSpace=wrap;rounded=0;labelBackgroundColor=none;strokeColor=#000000;align=center;verticalAlign=middle;fontFamily=Helvetica;fontSize=12;fontColor=default;fillColor=#d5e8d4;aspect=fixed;" vertex="1" parent="f6aZoT-HNPjUASfwBDb9-23">
          <mxGeometry x="5" width="50" height="50" as="geometry" />
        </mxCell>
        <mxCell id="f6aZoT-HNPjUASfwBDb9-18" value="&lt;b&gt;&lt;font style=&quot;font-size: 15px;&quot; color=&quot;#000000&quot;&gt;F&lt;/font&gt;&lt;/b&gt;" style="text;strokeColor=none;align=center;fillColor=none;html=1;verticalAlign=middle;whiteSpace=wrap;rounded=0;aspect=fixed;" vertex="1" parent="f6aZoT-HNPjUASfwBDb9-23">
          <mxGeometry y="10" width="60" height="30" as="geometry" />
        </mxCell>
        <mxCell id="f6aZoT-HNPjUASfwBDb9-27" value="" style="line;strokeWidth=2;direction=south;html=1;hachureGap=4;aspect=fixed;strokeColor=#000000;shadow=0;" vertex="1" parent="f6aZoT-HNPjUASfwBDb9-23">
          <mxGeometry x="28.43" y="-20" width="1.25" height="20" as="geometry" />
        </mxCell>
        <mxCell id="f6aZoT-HNPjUASfwBDb9-26" style="edgeStyle=orthogonalEdgeStyle;rounded=0;sketch=1;hachureGap=4;jiggle=2;curveFitting=1;orthogonalLoop=1;jettySize=auto;html=1;exitX=0.25;exitY=0.5;exitDx=0;exitDy=0;exitPerimeter=0;entryX=0.567;entryY=-0.064;entryDx=0;entryDy=0;entryPerimeter=0;" edge="1" parent="1">
          <mxGeometry relative="1" as="geometry">
            <mxPoint x="700.94" y="597.5" as="sourcePoint" />
            <mxPoint x="702.0003200000001" y="607.0099999999998" as="targetPoint" />
          </mxGeometry>
        </mxCell>
      </root>
    </mxGraphModel>
  </diagram>
</mxfile>
